<?xml version="1.0" encoding="UTF-8" standalone="no"?>
<!DOCTYPE svg PUBLIC "-//W3C//DTD SVG 20010904//EN"
              "http://www.w3.org/TR/2001/REC-SVG-20010904/DTD/svg10.dtd">

<svg xmlns="http://www.w3.org/2000/svg"
     width="3.6in" height="3.6in"
     viewBox="0 0 1080 1080">
  <path id="Selection"
        fill="#3d007a" stroke="black" stroke-width="10"
        d="M 388.00,719.00
           C 394.25,713.82 399.43,697.03 402.85,689.00
             402.85,689.00 432.42,618.00 432.42,618.00
             432.42,618.00 539.42,361.00 539.42,361.00
             539.42,361.00 572.80,281.00 572.80,281.00
             572.80,281.00 581.15,261.00 581.15,261.00
             582.11,258.74 584.19,254.51 583.45,252.11
             582.02,247.46 566.62,245.88 562.00,245.08
             562.00,245.08 519.00,236.80 519.00,236.80
             512.36,235.48 504.94,235.00 500.64,228.96
             496.26,222.63 499.50,209.41 500.64,202.00
             500.64,202.00 505.25,165.00 505.25,165.00
             506.09,159.80 505.95,153.31 509.43,149.11
             513.62,144.04 519.03,144.01 525.00,144.00
             525.00,144.00 841.00,144.00 841.00,144.00
             845.92,144.01 849.87,143.81 853.79,147.39
             858.10,151.32 858.61,156.66 859.61,162.00
             859.61,162.00 864.61,189.00 864.61,189.00
             864.61,189.00 891.42,338.00 891.42,338.00
             891.42,338.00 951.58,671.00 951.58,671.00
             951.58,671.00 970.39,775.00 970.39,775.00
             970.39,775.00 975.80,805.00 975.80,805.00
             976.85,810.24 977.69,816.35 980.36,821.00
             985.31,829.59 994.12,832.15 1003.00,834.71
             1003.00,834.71 1034.00,843.86 1034.00,843.86
             1040.42,845.70 1049.98,847.48 1054.01,853.18
             1058.50,859.54 1055.51,867.81 1055.02,875.00
             1055.02,875.00 1050.73,912.00 1050.73,912.00
             1049.97,917.30 1050.39,923.48 1047.30,927.98
             1043.17,933.99 1038.55,933.99 1032.00,934.00
             1032.00,934.00 700.00,934.00 700.00,934.00
             693.47,933.99 687.87,933.72 684.70,926.98
             681.93,921.60 684.25,914.76 684.70,909.00
             684.70,909.00 689.00,872.00 689.00,872.00
             689.77,866.39 689.84,858.74 692.99,854.09
             696.47,848.96 702.34,847.91 708.00,846.80
             708.00,846.80 742.00,840.75 742.00,840.75
             742.00,840.75 769.00,835.92 769.00,835.92
             772.45,835.30 776.95,834.62 778.22,830.89
             779.26,828.63 778.33,824.49 778.22,822.00
             778.22,822.00 774.75,801.00 774.75,801.00
             774.75,801.00 763.25,729.00 763.25,729.00
             762.38,723.70 761.15,707.68 756.78,705.02
             754.76,703.80 751.32,704.00 749.00,704.00
             749.00,704.00 556.00,704.00 556.00,704.00
             553.20,704.00 549.60,703.79 547.10,705.17
             542.32,707.83 537.60,722.58 535.40,728.00
             535.40,728.00 504.99,802.00 504.99,802.00
             504.99,802.00 495.85,824.00 495.85,824.00
             494.71,826.69 492.47,830.85 494.64,833.49
             496.67,835.96 508.39,837.50 512.00,838.20
             512.00,838.20 555.00,846.25 555.00,846.25
             561.63,847.40 569.12,848.37 572.49,855.02
             575.28,860.32 573.21,870.11 572.49,876.00
             572.49,876.00 568.42,911.00 568.42,911.00
             567.84,915.29 567.63,922.12 566.00,926.00
             563.52,931.86 559.84,932.92 554.00,933.00
             554.00,933.00 446.00,933.00 446.00,933.00
             446.00,933.00 249.00,933.00 249.00,933.00
             244.79,932.99 241.59,933.32 238.04,930.57
             233.02,926.68 232.55,921.76 231.40,916.00
             231.40,916.00 225.80,887.00 225.80,887.00
             225.80,887.00 196.40,734.00 196.40,734.00
             196.40,734.00 131.60,398.00 131.60,398.00
             131.60,398.00 112.66,300.00 112.66,300.00
             110.09,287.88 107.94,268.13 101.53,258.01
             96.83,250.59 89.08,248.10 81.00,246.13
             81.00,246.13 44.00,238.00 44.00,238.00
             37.39,236.59 26.86,235.42 22.65,229.90
             18.15,224.00 20.87,210.19 21.87,203.00
             21.87,203.00 26.58,166.00 26.58,166.00
             27.35,160.67 27.86,153.33 31.42,149.11
             35.68,144.03 40.96,144.01 47.00,144.00
             47.00,144.00 265.00,144.00 265.00,144.00
             265.00,144.00 386.00,144.00 386.00,144.00
             392.20,144.08 398.74,145.47 401.26,152.00
             402.65,155.60 401.16,167.72 400.58,172.00
             400.58,172.00 395.42,212.00 395.42,212.00
             394.58,217.83 394.21,225.12 390.36,229.81
             385.90,235.26 378.37,235.48 372.00,236.88
             372.00,236.88 328.00,245.60 328.00,245.60
             323.82,246.44 309.31,248.33 307.58,251.80
             306.33,253.74 307.40,258.81 307.58,261.00
             307.58,261.00 311.58,283.00 311.58,283.00
             311.58,283.00 320.42,334.00 320.42,334.00
             320.42,334.00 326.73,369.00 326.73,369.00
             326.73,369.00 336.57,425.00 336.57,425.00
             336.57,425.00 369.43,614.00 369.43,614.00
             369.43,614.00 381.42,682.00 381.42,682.00
             381.42,682.00 388.00,719.00 388.00,719.00 Z
           M 699.00,337.00
           C 699.00,337.00 697.00,337.00 697.00,337.00
             697.00,337.00 669.58,402.00 669.58,402.00
             669.58,402.00 612.42,541.00 612.42,541.00
             612.42,541.00 594.00,586.00 594.00,586.00
             592.72,589.19 587.58,599.79 588.67,602.57
             589.82,605.52 595.42,605.00 598.00,605.00
             598.00,605.00 699.00,605.00 699.00,605.00
             699.00,605.00 726.00,605.00 726.00,605.00
             732.52,605.00 736.94,605.81 743.00,603.00
             743.00,603.00 735.92,559.00 735.92,559.00
             735.92,559.00 716.57,442.00 716.57,442.00
             716.57,442.00 704.57,370.00 704.57,370.00
             704.57,370.00 699.00,337.00 699.00,337.00 Z" />
</svg>
